<svg version="1.1" id="Layer_1" xmlns="http://www.w3.org/2000/svg" xmlns:xlink="http://www.w3.org/1999/xlink" x="0px" y="0px"
	 width="100%" viewBox="0 0 64 64" enable-background="new 0 0 64 64" xml:space="preserve">
<path fill="#ECEFF1" opacity="1.000000" stroke="none" 
	d="
M9.000000,1.000000 
	C24.687561,1.000000 40.375122,1.000000 56.527870,1.468065 
	C57.005013,7.655276 57.016972,13.374422 57.019203,19.544069 
	C57.097847,23.042908 57.186222,26.091246 57.075592,29.427149 
	C50.887287,33.751347 44.897991,37.787975 38.533562,41.858894 
	C34.380348,39.757576 30.634064,39.065331 26.659821,41.983768 
	C25.576885,41.220173 24.828201,40.579746 24.029091,40.010052 
	C18.934055,36.377773 13.827913,32.761074 8.821760,28.684978 
	C8.935757,25.184986 8.953423,22.139259 8.979662,18.619802 
	C8.992157,12.430715 8.996078,6.715357 9.000000,1.000000 
M44.066036,17.001438 
	C36.110291,17.004295 28.153446,16.945074 20.200140,17.085823 
	C19.165234,17.104136 18.148550,18.152357 17.123426,18.723530 
	C17.799126,19.460022 18.465487,20.827690 19.151930,20.837841 
	C28.664963,20.978550 38.180748,20.933006 47.695862,20.933006 
	C47.875198,20.433693 48.054535,19.934381 48.233871,19.435068 
	C47.144810,18.629908 46.055748,17.824745 44.066036,17.001438 
M30.515682,8.999175 
	C18.407280,8.999185 18.407280,8.999185 17.243279,12.570921 
	C27.481010,12.570921 37.579102,12.570921 47.677197,12.570921 
	C47.872322,12.031172 48.067451,11.491423 48.262577,10.951674 
	C46.829075,10.301948 45.424732,9.183135 43.956520,9.091881 
	C39.821072,8.834847 35.659374,9.000280 30.515682,8.999175 
M23.626820,29.005144 
	C26.782244,29.002169 29.949812,29.152880 33.085896,28.905107 
	C34.061131,28.828058 34.951069,27.671474 35.880054,27.009100 
	C34.957134,26.340708 34.059814,25.141068 33.106903,25.095150 
	C28.799036,24.887577 24.470510,24.895559 20.161102,25.087740 
	C19.124655,25.133961 18.132841,26.181089 17.120499,26.767912 
	C18.143873,27.509733 19.093889,28.407980 20.217939,28.935129 
	C20.900099,29.255043 21.851332,29.001196 23.626820,29.005144 
z"/>
<path fill="#2196F3" opacity="1.000000" stroke="none" 
	d="
M26.970757,42.139648 
	C30.634064,39.065331 34.380348,39.757576 38.692921,42.172497 
	C40.394707,43.360218 41.493950,44.377071 42.740479,45.159206 
	C50.141399,49.802952 57.576431,54.392345 65.000000,59.000000 
	C65.000000,60.986782 65.000000,62.973568 65.000000,64.980179 
	C43.666668,64.980179 22.333336,64.980179 1.000001,64.973030 
	C1.000000,63.310234 1.000000,61.654587 1.354619,59.461143 
	C10.129745,53.328781 18.550251,47.734215 26.970757,42.139648 
z"/>
<path fill="#1E88E5" opacity="1.000000" stroke="none" 
	d="
M65.000000,58.531342 
	C57.576431,54.392345 50.141399,49.802952 42.740479,45.159206 
	C41.493950,44.377071 40.394707,43.360218 39.068054,42.138210 
	C44.897991,37.787975 50.887287,33.751347 57.405945,29.358738 
	C60.290207,27.668507 62.645103,26.334253 65.000000,25.000000 
	C65.000000,36.020893 65.000000,47.041790 65.000000,58.531342 
z"/>
<path fill="#1E88E5" opacity="1.000000" stroke="none" 
	d="
M26.659822,41.983772 
	C18.550251,47.734215 10.129745,53.328781 1.354619,58.961674 
	C1.000000,47.979103 1.000000,36.958210 1.303792,25.617062 
	C3.980199,26.577620 6.352814,27.858431 8.725429,29.139242 
	C13.827913,32.761074 18.934055,36.377773 24.029091,40.010052 
	C24.828201,40.579746 25.576885,41.220173 26.659822,41.983772 
z"/>
<path fill="#FFFFFF" opacity="1.000000" stroke="none" 
	d="
M8.505266,1.000000 
	C8.996078,6.715357 8.992157,12.430715 8.630942,18.602913 
	C5.849100,20.706503 3.424551,22.353252 1.000000,24.000000 
	C1.000000,16.333172 1.000000,8.666343 1.000000,1.000000 
	C3.418756,1.000000 5.714645,1.000000 8.505266,1.000000 
z"/>
<path fill="#FFFFFF" opacity="1.000000" stroke="none" 
	d="
M57.028927,19.093567 
	C57.016972,13.374422 57.005013,7.655276 56.996529,1.468065 
	C59.628418,1.000000 62.256836,1.000000 65.000000,1.000000 
	C65.000000,8.353885 65.000000,15.708206 64.680588,23.415487 
	C61.917099,22.210155 59.473015,20.651861 57.028927,19.093567 
z"/>
<path fill="#63B5F6" opacity="1.000000" stroke="none" 
	d="
M1.000000,24.250000 
	C3.424551,22.353252 5.849100,20.706503 8.622368,19.076643 
	C8.953423,22.139259 8.935757,25.184986 8.821760,28.684978 
	C6.352814,27.858431 3.980199,26.577620 1.303792,25.148403 
	C1.000000,25.000000 1.000000,24.500000 1.000000,24.250000 
z"/>
<path fill="#63B5F6" opacity="1.000000" stroke="none" 
	d="
M57.019203,19.544067 
	C59.473015,20.651861 61.917099,22.210155 64.680588,23.884224 
	C65.000000,24.000000 65.000000,24.500000 65.000000,24.750000 
	C62.645103,26.334253 60.290207,27.668507 57.604954,29.071171 
	C57.186222,26.091246 57.097847,23.042908 57.019203,19.544067 
z"/>
<path fill="#91A5AE" opacity="1.000000" stroke="none" 
	d="
M44.516361,17.010511 
	C46.055748,17.824745 47.144810,18.629908 48.233871,19.435068 
	C48.054535,19.934381 47.875198,20.433693 47.695862,20.933006 
	C38.180748,20.933006 28.664963,20.978550 19.151930,20.837841 
	C18.465487,20.827690 17.799126,19.460022 17.123426,18.723530 
	C18.148550,18.152357 19.165234,17.104136 20.200140,17.085823 
	C28.153446,16.945074 36.110291,17.004295 44.516361,17.010511 
z"/>
<path fill="#90A4AE" opacity="1.000000" stroke="none" 
	d="
M31.011852,8.999174 
	C35.659374,9.000280 39.821072,8.834847 43.956520,9.091881 
	C45.424732,9.183135 46.829075,10.301948 48.262577,10.951674 
	C48.067451,11.491423 47.872322,12.031172 47.677197,12.570921 
	C37.579102,12.570921 27.481010,12.570921 17.243279,12.570921 
	C18.407280,8.999185 18.407280,8.999185 31.011852,8.999174 
z"/>
<path fill="#91A5AF" opacity="1.000000" stroke="none" 
	d="
M23.154253,29.005125 
	C21.851332,29.001196 20.900099,29.255043 20.217939,28.935129 
	C19.093889,28.407980 18.143873,27.509733 17.120499,26.767914 
	C18.132841,26.181089 19.124655,25.133961 20.161102,25.087740 
	C24.470510,24.895559 28.799036,24.887577 33.106903,25.095150 
	C34.059814,25.141068 34.957134,26.340708 35.880054,27.009102 
	C34.951069,27.671474 34.061131,28.828058 33.085896,28.905107 
	C29.949812,29.152880 26.782244,29.002169 23.154253,29.005125 
z"/>
</svg>